<svg xmlns="http://www.w3.org/2000/svg" width="243.159" height="220.548" viewBox="0 0 243.159 220.548">
  <g id="グループ_1054" data-name="グループ 1054" transform="translate(-2.12 -5.491)">
    <path id="パス_64" data-name="パス 64" d="M241.874,137.544C247.8,118.1,234.288,98.22,211.7,93.138s-45.709,6.562-51.634,26.006,7.585,39.324,30.176,44.405,45.709-6.561,51.634-26" transform="translate(2.011 1.11)" fill="#df1f3a"/>
    <path id="パス_65" data-name="パス 65" d="M223.281,136.4c1.783-3.74,1.491-10.381.932-12.455a3.205,3.205,0,0,0-3.329-2.618c-1.106.142-2.763,1.392-3.446,4.3s-1.362,7.05-2.738,9.826c2,.917,7.323,1.6,8.582.948" transform="translate(2.73 1.488)" fill="#bc1a21"/>
    <path id="パス_66" data-name="パス 66" d="M206.849,171.388c-5.608.016-12.064-2.568-14.6-7.587l-.145-.421c-2.159-10.8,1.32-17.572,10.631-20.7,5.006-1.684,10.286-3.695,14.967-6.964l1.983-.433c7.4-.992,15.828,2.723,19.884,7.944l.578.744-.341.877a33.1,33.1,0,0,1-13.214,16.1c-3.05,6.238-11.275,9.441-17.527,10.3a16.84,16.84,0,0,1-2.213.149" transform="translate(2.432 1.665)" fill="#f3f3f3"/>
    <path id="パス_67" data-name="パス 67" d="M13.073,56.658C18.4,67.479,39.885,94.74,49.914,100.8c3.752,2.267,10.61-5.739,14.024-14.254,4.364-10.881-3.5-28.934-3.5-28.934L47.146,37.035S8.252,46.861,13.073,56.658" transform="translate(0.135 0.405)" fill="#df1f3a"/>
    <path id="パス_68" data-name="パス 68" d="M30.065,55.659c-10.463,3.779-19.775-4.882-16.991.775,5.325,10.821,26.812,38.083,36.84,44.141,0,0-2.22-1.854.264-4.368Z" transform="translate(0.134 0.629)" fill="#bc1a21"/>
    <path id="パス_69" data-name="パス 69" d="M74.211,167.255c-2.5,7.34-8.836,30.222-9.52,33.277-6.134,3.247-8.772,7.522-8.376,12.477.443,5.533,5.343,9.67,18.073,10,12.689.33,20.821.676,28.572-7.095,4.6-5.363,10.278-19.276,12.964-30.62Z" transform="translate(0.696 2.078)" fill="#df1f3a"/>
    <path id="パス_70" data-name="パス 70" d="M115.6,185.123l-9.831-4.251-24.213,42.1c8.619-.025,14.973-1.1,21.079-7.225,4.6-5.363,10.278-19.275,12.964-30.62" transform="translate(1.02 2.252)" fill="#bc1a21"/>
    <path id="パス_71" data-name="パス 71" d="M188.579,166.916c2.541,7.326,9.014,30.171,9.716,33.221,6.154,3.21,8.817,7.469,8.451,12.427-.409,5.536-5.285,9.7-18.013,10.108-12.687.405-20.817.8-28.615-6.926-4.628-5.336-10.393-19.215-13.148-30.542Z" transform="translate(1.86 2.073)" fill="#df1f3a"/>
    <path id="パス_72" data-name="パス 72" d="M25.014,160.538,66.387,18.514A13.428,13.428,0,0,1,77.2,9.026c60.417-9.43,94.464,1.4,115.551,16.068,22.053,15.34,39.81,36.68,36.66,75.141-3.2,39.085-25.285,70.644-67.823,83.92-39.617,12.364-95.752,2.07-127.126-6.622a13.654,13.654,0,0,1-9.5-16.809c.017-.063.034-.125.053-.185" transform="translate(0.287)" fill="#df1f3a"/>
    <path id="パス_73" data-name="パス 73" d="M170.941,173.412c-40.349,12.465-95.238,3.212-128.508-5.592-6.835-1.809-17.076-10.236-13.213-23.5L24.666,159.96a12.439,12.439,0,0,0,8.467,15.42l.136.038c31.126,8.757,88.194,19.479,128.324,6.956,18.081-5.642,32.429-14.614,43.239-26.033a109.294,109.294,0,0,1-33.894,17.078" transform="translate(0.283 1.783)" fill="#bc1a21"/>
    <path id="パス_74" data-name="パス 74" d="M195.8,93.551c-.1-33.641-22.467-60.845-63.247-60.724-37.974.113-60.3,24.228-61.852,61.095-1.414,33.61,23.424,60.059,61.913,59.944,38.98-.115,63.285-26.674,63.186-60.315" transform="translate(0.88 0.351)" fill="#fce7db"/>
    <path id="パス_1776" data-name="パス 1776" d="M70.706,93.922c-1.414,33.61,23.424,60.059,61.913,59.944,38.98-.115,63.285-26.675,63.186-60.315s-22.467-60.845-63.248-60.724c-37.974.113-60.3,24.228-61.852,61.095" transform="translate(0.88 0.351)" fill="none"/>
    <path id="パス_75" data-name="パス 75" d="M195.11,94.915a14.013,14.013,0,1,0-13.971,14.054A14.012,14.012,0,0,0,195.11,94.915h0" transform="translate(2.119 0.969)" fill="#f6c4c1"/>
    <path id="パス_1777" data-name="パス 1777" d="M97.2,95.206a14,14,0,0,0-26.125-6.979c-.163,1.666-.3,3.35-.369,5.073a62.892,62.892,0,0,0,.246,8.771A14.011,14.011,0,0,0,97.2,95.206Z" transform="translate(0.88 0.973)" fill="#f6c4c1"/>
    <path id="パス_78" data-name="パス 78" d="M174.863,77.645a15.191,15.191,0,1,0-15.147,15.236,15.192,15.192,0,0,0,15.147-15.236" transform="translate(1.828 0.732)" fill="#fff"/>
    <path id="パス_79" data-name="パス 79" d="M168.913,76.186a10.069,10.069,0,1,0-10.038,10.1h0a10.069,10.069,0,0,0,10.038-10.1" transform="translate(1.884 0.779)" fill="#5b5959"/>
    <path id="パス_80" data-name="パス 80" d="M120.67,77.805a15.191,15.191,0,1,0-15.146,15.237h0A15.191,15.191,0,0,0,120.67,77.807v0" transform="translate(1.132 0.734)" fill="#fff"/>
    <path id="パス_81" data-name="パス 81" d="M116.472,76.341a10.069,10.069,0,1,0-10.039,10.1h0a10.068,10.068,0,0,0,10.039-10.1" transform="translate(1.21 0.781)" fill="#5b5959"/>
    <path id="パス_82" data-name="パス 82" d="M138.923,29.789c-20.162-.477-38.352,5.76-48.925,17.675,10.378-9.312,27.945-14.872,45.613-14.608,37.081.556,60.175,27.116,60.079,60.753-.064,22.519-10.609,37.194-22,47.061,14.17-7.823,26.628-30.881,26.574-48.883-.09-30.492-20.243-61.026-61.334-62" transform="translate(1.129 0.312)" fill="#bc1a21"/>
    <path id="パス_83" data-name="パス 83" d="M177.133,172.92l-30.162,12.209c2.739,11.266,5.377,18.17,9.465,24.995Z" transform="translate(1.86 2.15)" fill="#bc1a21"/>
    <path id="パス_84" data-name="パス 84" d="M183.3,223.35c-13.282.04-19.793-2.293-24.371-6.974-3.195-3.678-6.606-10.048-9.445-17.571l-.67-1.779,1.855-.423c12.128-2.773,26.586-4.55,45.505-5.6l1.329-.075.362,1.28c.422,1.5.842,2.9,1.19,4.066.262.885.622,2.946.78,3.511,7.48,2.8,10.259,7.3,9.584,12.286-.681,5-5.98,10.408-26.117,11.284" transform="translate(1.884 2.382)" fill="#f3f3f3"/>
    <path id="パス_85" data-name="パス 85" d="M53.464,212.524c-.983-4.982,2.244-9.5,9.708-12.343.154-.565.5-2.628.759-3.515.341-1.169.753-2.574,1.167-4.073l.352-1.283,1.33.068c18.923.937,33.393,2.631,45.538,5.332l1.858.412-.661,1.783c-2.794,7.538-6.166,13.93-9.339,17.627-4.552,4.709-11.048,7.08-24.33,7.119-20.141-.758-25.4-6.177-26.381-11.128" transform="translate(0.657 2.387)" fill="#f3f3f3"/>
    <path id="パス_86" data-name="パス 86" d="M16.488,65.327l-.691-.971C9.967,56.158,4.7,43.619,2.683,33.148c-2.04-10.6,1.482-18.722,10.2-23.489,8.354-4.574,18.183-.836,24.218,5.457,2.853-2.49,8.169-5.816,12.122-3.123,5.012,3.419,2.273,13.745-1.339,20.251,1.67,2.665,2.925,4.926,4.144,7.122l1.34,2.4-.7.875c-4.944,6.159-21.441,18.21-35.036,22.329Z" transform="translate(0 0.027)" fill="#f3f3f3"/>
    <path id="パス_87" data-name="パス 87" d="M165.309,193.866c-5.278.771-10.126,1.666-14.646,2.7l-1.855.423.67,1.779A79.328,79.328,0,0,0,155.5,211.5Z" transform="translate(1.884 2.419)" fill="#c8ced1"/>
    <path id="パス_88" data-name="パス 88" d="M113.821,197.091l-1.858-.412c-4.316-.96-8.943-1.786-13.943-2.5L81,223.615c8.956-.026,16.3-.584,22.906-7.213,3.09-3.6,6.463-9.991,9.257-17.532Z" transform="translate(1.013 2.423)" fill="#c8ced1"/>
    <path id="パス_1778" data-name="パス 1778" d="M132.354,115.286a47.412,47.412,0,0,1-23.6-5.945,1.723,1.723,0,1,1,1.728-2.981c12.562,7.279,31.336,7.213,44.641-.154a1.723,1.723,0,1,1,1.669,3.014A50.928,50.928,0,0,1,132.354,115.286Z" transform="translate(1.359 1.291)" fill="#d8a2a2"/>
    <path id="パス_90" data-name="パス 90" d="M167.37,69.395a2.767,2.767,0,1,0-2.759,2.775h0a2.767,2.767,0,0,0,2.759-2.775" transform="translate(2.051 0.785)" fill="#fff"/>
    <path id="パス_91" data-name="パス 91" d="M114.462,69.552a2.768,2.768,0,1,0-2.759,2.775h0a2.768,2.768,0,0,0,2.759-2.775" transform="translate(1.372 0.787)" fill="#fff"/>
  </g>
</svg>
